<svg width="255" height="97" viewBox="0 0 255 97" fill="none" xmlns="http://www.w3.org/2000/svg">
<g id="image (14) 2 (Traced)">
<mask id="path-1-inside-1_32_252" fill="white">
<path fill-rule="evenodd" clip-rule="evenodd" d="M128.714 10.7631C60.3702 16.6314 3.451 21.4555 2.22619 21.4833L0 21.5335V57.8336V94.1339H1.717C2.66172 94.1339 9.66571 93.5917 17.2825 92.9282C24.8985 92.2655 31.2897 91.5704 31.4856 91.3835C31.6815 91.1974 30.5968 91.0553 29.0757 91.0676C27.5538 91.0808 20.855 91.5743 14.1877 92.1651C7.52048 92.7552 1.78257 93.0719 1.43772 92.868C1.09205 92.6649 0.809524 76.8673 0.809524 57.7641C0.809524 30.6641 1.03214 22.9584 1.82143 22.7067C2.37838 22.529 58.7512 17.6687 127.095 11.9054C195.439 6.14296 251.813 1.43321 252.369 1.44016C253.163 1.4502 253.381 8.98519 253.381 36.5108V71.5683L251.56 71.9761C250.557 72.2 243.819 72.8241 236.583 73.364C229.349 73.9031 223.429 74.6569 223.429 75.0392C223.429 75.4207 224.795 75.5396 226.464 75.3033C228.134 75.0662 234.418 74.497 240.429 74.0367C246.439 73.5771 252.176 73.0388 253.179 72.8395L255 72.4789V36.1933C255 7.63048 254.785 -0.0720933 253.988 0.000507103C253.432 0.0514818 197.058 4.89485 128.714 10.7631ZM214.929 22.7422C209.14 23.2882 204.132 23.7609 203.798 23.7926C203.463 23.8242 203.19 31.5415 203.19 40.9417V58.0329L207.036 57.5904C209.151 57.3471 216.254 56.7253 222.821 56.2094L234.762 55.2702V51.8302V48.3902L231.321 48.8312C229.43 49.073 224.967 49.4807 221.405 49.7372C217.843 49.9928 213.917 50.3852 212.679 50.6091L210.429 51.0154L210.655 40.3292L210.881 29.6431L217.762 29.0909C221.546 28.7873 226.92 28.3247 229.702 28.0636L234.762 27.5894V24.5611V21.5335L230.107 21.6416C227.547 21.7011 220.717 22.1961 214.929 22.7422ZM189.159 25.138C188.862 25.4207 188.619 33.0089 188.619 42.0006C188.619 50.9922 188.783 58.504 188.982 58.6948C189.181 58.8848 190.82 58.9064 192.625 58.7419L195.905 58.4438V41.5333V24.6228H192.802C191.095 24.6228 189.455 24.8546 189.159 25.138ZM165.143 26.9708C156.906 27.7354 149.164 28.3896 147.94 28.4236L145.714 28.4846V45.4762V62.4677H148.952H152.19V48.5655C152.19 35.4874 152.28 34.6633 153.708 34.6633C154.543 34.6633 156.364 34.4463 157.756 34.1806L160.286 33.6979V47.787V61.8753L162.107 61.4096C163.109 61.154 164.558 60.9393 165.327 60.9339C166.589 60.9238 166.746 59.5992 166.946 47.2139L167.167 33.5048L171.012 33.2692L174.857 33.0337V46.5922V60.1507H178.095H181.333V42.7729C181.333 33.2152 181.061 25.4369 180.726 25.4871C180.392 25.5381 173.38 26.2054 165.143 26.9708ZM119.405 30.8433C111.39 31.6079 104.196 32.259 103.417 32.2899C102.112 32.3417 102 33.694 102 49.3819V66.4183L105.44 66.1804L108.881 65.9433L109.286 58.9922C109.688 52.0828 109.703 52.0395 111.929 51.7955C113.77 51.5939 115.419 52.6574 121.217 57.7858L128.268 64.0224L130.717 61.6405L133.167 59.2594L128.437 55.1837L123.707 51.1081L126.818 50.6176C128.529 50.3481 131.265 50.1233 132.898 50.1187C134.532 50.1141 136.444 49.8994 137.148 49.6414C138.224 49.2475 138.429 47.5823 138.429 39.2148V29.2569L136.202 29.355C134.978 29.4091 127.419 30.0794 119.405 30.8433ZM74.0714 34.695C66.0571 35.4441 59.4085 36.0914 59.2976 36.1331C59.1867 36.174 59.0952 43.8975 59.0952 53.2961V70.3842L61.625 69.9015C63.0166 69.6359 64.4591 69.4188 64.8315 69.4188C65.2039 69.4188 65.6135 66.3781 65.7422 62.6608L65.9762 55.9028L70.0238 55.4386C72.25 55.183 77.2593 54.7304 81.1548 54.433L88.2381 53.8916V60.9655C88.2381 67.0987 88.4081 67.9769 89.5188 67.5706C90.2231 67.3126 91.6802 67.1018 92.7569 67.1018H94.7143V50.1102V33.1186L91.6786 33.2252C90.0093 33.2839 82.0857 33.945 74.0714 34.695ZM131.143 39.9632V43.7191L124.06 44.2388C120.164 44.5254 115.246 44.9649 113.131 45.2174L109.286 45.6754V42.1002C109.286 40.1338 109.377 38.488 109.488 38.4424C109.599 38.3968 114.244 37.9257 119.81 37.3959C125.375 36.866 130.201 36.3826 130.536 36.3208C130.87 36.259 131.143 37.8979 131.143 39.9632ZM39.1988 45.09C33.4495 51.0548 31.6953 52.4272 29.8253 52.4272H27.5238V45.3796V38.332L24.994 38.8147C23.6025 39.0804 21.9632 39.2974 21.3512 39.2974C20.4405 39.2974 20.2381 42.3868 20.2381 56.289V73.2805H22.6003C23.8996 73.2805 25.5389 73.0697 26.2431 72.8117C27.2785 72.4325 27.5238 71.0253 27.5238 65.4745V58.606H30.0285C32.0312 58.606 33.9692 59.8587 39.7096 64.8643L46.8868 71.1226L48.9179 68.9191C50.035 67.7073 50.9603 66.5241 50.9741 66.2901C50.9887 66.056 48.0768 63.3706 44.5036 60.3221L38.0071 54.7798L44.5036 48.106C48.0768 44.435 51 41.1456 51 40.795C51 40.4443 50.1905 39.6164 49.2004 38.9552C48.2112 38.2941 47.1475 37.7527 46.8366 37.7527C46.5258 37.7527 43.0893 41.0545 39.1988 45.09ZM88.0819 43.7384C88.2195 45.5433 88.2195 47.054 88.0819 47.0942C87.9451 47.1344 83.0976 47.6186 77.3095 48.1709C71.5214 48.7223 66.4878 48.9092 66.1235 48.5856C65.7592 48.262 65.5771 46.6478 65.7188 44.9988L65.9762 42.0006L75.2857 41.1286C80.406 40.649 85.3238 40.3014 86.2143 40.3563C87.5201 40.4366 87.8819 41.0915 88.0819 43.7384ZM186.66 71.0531C185.125 72.2047 184.555 73.2651 184.729 74.6437C184.865 75.7196 185.523 76.8619 186.19 77.1824C186.858 77.5022 188.862 78.0583 190.643 78.419C193.343 78.9642 193.922 79.4168 194.132 81.1453C194.313 82.6414 193.887 83.4701 192.599 84.1281C191.618 84.6294 189.409 84.8595 187.693 84.6394C185.927 84.4139 184.767 84.5436 185.024 84.9391C185.272 85.3237 187.094 85.638 189.072 85.638C191.588 85.638 193.152 85.1747 194.286 84.0934C195.176 83.2438 195.905 81.8736 195.905 81.048C195.905 80.2224 195.095 79.0059 194.105 78.3448C193.116 77.6837 191.364 77.1423 190.213 77.1423C189.061 77.1423 187.458 76.6812 186.651 76.1181C185.658 75.4254 185.354 74.5773 185.714 73.4976C186.005 72.6202 187.292 71.4879 188.573 70.982C190.27 70.3109 191.344 70.2885 192.54 70.8986C193.441 71.3589 194.477 71.725 194.839 71.7111C195.203 71.698 194.792 71.1767 193.929 70.5526C193.064 69.9293 191.565 69.4188 190.598 69.4188C189.629 69.4188 187.857 70.1541 186.66 71.0531ZM141.869 73.7918C141.151 74.0683 140.857 76.4989 140.857 82.154V90.1254L145.917 89.7392C148.841 89.516 151.83 88.7823 153 87.9983C154.252 87.1611 155.119 85.7431 155.272 84.2841C155.451 82.5773 155.042 81.6064 153.796 80.7723C152.722 80.0548 152.399 79.4276 152.941 79.1079C153.419 78.8268 153.81 77.8173 153.81 76.865C153.81 75.9127 153.372 74.7171 152.838 74.2074C152.297 73.6914 149.874 73.3076 147.374 73.3416C144.903 73.3748 142.426 73.5779 141.869 73.7918ZM152.501 75.7799C153.193 76.8326 153.036 77.4412 151.774 78.6121C150.733 79.5775 148.739 80.1938 146.119 80.3606L142.071 80.6178L141.825 77.7864C141.633 75.5891 141.904 74.87 143.039 74.5758C143.843 74.368 146.102 74.2514 148.06 74.3178C150.461 74.3997 151.907 74.8754 152.501 75.7799ZM104.134 77.7439C103.919 78.0753 102.245 81.5956 100.413 85.5678C98.5814 89.5392 97.2691 92.9668 97.4974 93.1846C97.7249 93.4024 98.6494 91.9666 99.5512 89.9956C100.453 88.0238 101.906 84.8464 102.78 82.9349C103.655 81.0233 104.583 79.4593 104.841 79.4593C105.1 79.4593 106.76 82.4637 108.53 86.137C110.3 89.8095 111.958 92.6139 112.215 92.369C112.47 92.125 111.029 88.5985 109.01 84.5336C106.992 80.468 105.157 77.1423 104.932 77.1423C104.708 77.1423 104.348 77.4134 104.134 77.7439ZM59.2644 89.0032C59.1155 96.3721 59.2507 97.3314 60.3759 96.9197C61.0802 96.6617 63.448 96.4509 65.6378 96.4509C67.8276 96.4509 69.6199 96.1906 69.6207 95.8716C69.6215 95.5527 67.4495 95.4098 64.7935 95.5527L59.9655 95.8129L59.6999 88.2154L59.4344 80.6178L59.2644 89.0032ZM153.801 82.1525C154.38 82.8182 154.583 84.1281 154.282 85.2689C153.987 86.3926 152.883 87.5573 151.71 87.9821C150.581 88.3922 147.859 88.7274 145.662 88.7274H141.667V85.306C141.667 82.371 141.926 81.8358 143.488 81.5493C144.49 81.3647 146.995 81.1669 149.056 81.109C151.495 81.0403 153.151 81.4048 153.801 82.1525Z"/>
</mask>
<path fill-rule="evenodd" clip-rule="evenodd" d="M128.714 10.7631C60.3702 16.6314 3.451 21.4555 2.22619 21.4833L0 21.5335V57.8336V94.1339H1.717C2.66172 94.1339 9.66571 93.5917 17.2825 92.9282C24.8985 92.2655 31.2897 91.5704 31.4856 91.3835C31.6815 91.1974 30.5968 91.0553 29.0757 91.0676C27.5538 91.0808 20.855 91.5743 14.1877 92.1651C7.52048 92.7552 1.78257 93.0719 1.43772 92.868C1.09205 92.6649 0.809524 76.8673 0.809524 57.7641C0.809524 30.6641 1.03214 22.9584 1.82143 22.7067C2.37838 22.529 58.7512 17.6687 127.095 11.9054C195.439 6.14296 251.813 1.43321 252.369 1.44016C253.163 1.4502 253.381 8.98519 253.381 36.5108V71.5683L251.56 71.9761C250.557 72.2 243.819 72.8241 236.583 73.364C229.349 73.9031 223.429 74.6569 223.429 75.0392C223.429 75.4207 224.795 75.5396 226.464 75.3033C228.134 75.0662 234.418 74.497 240.429 74.0367C246.439 73.5771 252.176 73.0388 253.179 72.8395L255 72.4789V36.1933C255 7.63048 254.785 -0.0720933 253.988 0.000507103C253.432 0.0514818 197.058 4.89485 128.714 10.7631ZM214.929 22.7422C209.14 23.2882 204.132 23.7609 203.798 23.7926C203.463 23.8242 203.19 31.5415 203.19 40.9417V58.0329L207.036 57.5904C209.151 57.3471 216.254 56.7253 222.821 56.2094L234.762 55.2702V51.8302V48.3902L231.321 48.8312C229.43 49.073 224.967 49.4807 221.405 49.7372C217.843 49.9928 213.917 50.3852 212.679 50.6091L210.429 51.0154L210.655 40.3292L210.881 29.6431L217.762 29.0909C221.546 28.7873 226.92 28.3247 229.702 28.0636L234.762 27.5894V24.5611V21.5335L230.107 21.6416C227.547 21.7011 220.717 22.1961 214.929 22.7422ZM189.159 25.138C188.862 25.4207 188.619 33.0089 188.619 42.0006C188.619 50.9922 188.783 58.504 188.982 58.6948C189.181 58.8848 190.82 58.9064 192.625 58.7419L195.905 58.4438V41.5333V24.6228H192.802C191.095 24.6228 189.455 24.8546 189.159 25.138ZM165.143 26.9708C156.906 27.7354 149.164 28.3896 147.94 28.4236L145.714 28.4846V45.4762V62.4677H148.952H152.19V48.5655C152.19 35.4874 152.28 34.6633 153.708 34.6633C154.543 34.6633 156.364 34.4463 157.756 34.1806L160.286 33.6979V47.787V61.8753L162.107 61.4096C163.109 61.154 164.558 60.9393 165.327 60.9339C166.589 60.9238 166.746 59.5992 166.946 47.2139L167.167 33.5048L171.012 33.2692L174.857 33.0337V46.5922V60.1507H178.095H181.333V42.7729C181.333 33.2152 181.061 25.4369 180.726 25.4871C180.392 25.5381 173.38 26.2054 165.143 26.9708ZM119.405 30.8433C111.39 31.6079 104.196 32.259 103.417 32.2899C102.112 32.3417 102 33.694 102 49.3819V66.4183L105.44 66.1804L108.881 65.9433L109.286 58.9922C109.688 52.0828 109.703 52.0395 111.929 51.7955C113.77 51.5939 115.419 52.6574 121.217 57.7858L128.268 64.0224L130.717 61.6405L133.167 59.2594L128.437 55.1837L123.707 51.1081L126.818 50.6176C128.529 50.3481 131.265 50.1233 132.898 50.1187C134.532 50.1141 136.444 49.8994 137.148 49.6414C138.224 49.2475 138.429 47.5823 138.429 39.2148V29.2569L136.202 29.355C134.978 29.4091 127.419 30.0794 119.405 30.8433ZM74.0714 34.695C66.0571 35.4441 59.4085 36.0914 59.2976 36.1331C59.1867 36.174 59.0952 43.8975 59.0952 53.2961V70.3842L61.625 69.9015C63.0166 69.6359 64.4591 69.4188 64.8315 69.4188C65.2039 69.4188 65.6135 66.3781 65.7422 62.6608L65.9762 55.9028L70.0238 55.4386C72.25 55.183 77.2593 54.7304 81.1548 54.433L88.2381 53.8916V60.9655C88.2381 67.0987 88.4081 67.9769 89.5188 67.5706C90.2231 67.3126 91.6802 67.1018 92.7569 67.1018H94.7143V50.1102V33.1186L91.6786 33.2252C90.0093 33.2839 82.0857 33.945 74.0714 34.695ZM131.143 39.9632V43.7191L124.06 44.2388C120.164 44.5254 115.246 44.9649 113.131 45.2174L109.286 45.6754V42.1002C109.286 40.1338 109.377 38.488 109.488 38.4424C109.599 38.3968 114.244 37.9257 119.81 37.3959C125.375 36.866 130.201 36.3826 130.536 36.3208C130.87 36.259 131.143 37.8979 131.143 39.9632ZM39.1988 45.09C33.4495 51.0548 31.6953 52.4272 29.8253 52.4272H27.5238V45.3796V38.332L24.994 38.8147C23.6025 39.0804 21.9632 39.2974 21.3512 39.2974C20.4405 39.2974 20.2381 42.3868 20.2381 56.289V73.2805H22.6003C23.8996 73.2805 25.5389 73.0697 26.2431 72.8117C27.2785 72.4325 27.5238 71.0253 27.5238 65.4745V58.606H30.0285C32.0312 58.606 33.9692 59.8587 39.7096 64.8643L46.8868 71.1226L48.9179 68.9191C50.035 67.7073 50.9603 66.5241 50.9741 66.2901C50.9887 66.056 48.0768 63.3706 44.5036 60.3221L38.0071 54.7798L44.5036 48.106C48.0768 44.435 51 41.1456 51 40.795C51 40.4443 50.1905 39.6164 49.2004 38.9552C48.2112 38.2941 47.1475 37.7527 46.8366 37.7527C46.5258 37.7527 43.0893 41.0545 39.1988 45.09ZM88.0819 43.7384C88.2195 45.5433 88.2195 47.054 88.0819 47.0942C87.9451 47.1344 83.0976 47.6186 77.3095 48.1709C71.5214 48.7223 66.4878 48.9092 66.1235 48.5856C65.7592 48.262 65.5771 46.6478 65.7188 44.9988L65.9762 42.0006L75.2857 41.1286C80.406 40.649 85.3238 40.3014 86.2143 40.3563C87.5201 40.4366 87.8819 41.0915 88.0819 43.7384ZM186.66 71.0531C185.125 72.2047 184.555 73.2651 184.729 74.6437C184.865 75.7196 185.523 76.8619 186.19 77.1824C186.858 77.5022 188.862 78.0583 190.643 78.419C193.343 78.9642 193.922 79.4168 194.132 81.1453C194.313 82.6414 193.887 83.4701 192.599 84.1281C191.618 84.6294 189.409 84.8595 187.693 84.6394C185.927 84.4139 184.767 84.5436 185.024 84.9391C185.272 85.3237 187.094 85.638 189.072 85.638C191.588 85.638 193.152 85.1747 194.286 84.0934C195.176 83.2438 195.905 81.8736 195.905 81.048C195.905 80.2224 195.095 79.0059 194.105 78.3448C193.116 77.6837 191.364 77.1423 190.213 77.1423C189.061 77.1423 187.458 76.6812 186.651 76.1181C185.658 75.4254 185.354 74.5773 185.714 73.4976C186.005 72.6202 187.292 71.4879 188.573 70.982C190.27 70.3109 191.344 70.2885 192.54 70.8986C193.441 71.3589 194.477 71.725 194.839 71.7111C195.203 71.698 194.792 71.1767 193.929 70.5526C193.064 69.9293 191.565 69.4188 190.598 69.4188C189.629 69.4188 187.857 70.1541 186.66 71.0531ZM141.869 73.7918C141.151 74.0683 140.857 76.4989 140.857 82.154V90.1254L145.917 89.7392C148.841 89.516 151.83 88.7823 153 87.9983C154.252 87.1611 155.119 85.7431 155.272 84.2841C155.451 82.5773 155.042 81.6064 153.796 80.7723C152.722 80.0548 152.399 79.4276 152.941 79.1079C153.419 78.8268 153.81 77.8173 153.81 76.865C153.81 75.9127 153.372 74.7171 152.838 74.2074C152.297 73.6914 149.874 73.3076 147.374 73.3416C144.903 73.3748 142.426 73.5779 141.869 73.7918ZM152.501 75.7799C153.193 76.8326 153.036 77.4412 151.774 78.6121C150.733 79.5775 148.739 80.1938 146.119 80.3606L142.071 80.6178L141.825 77.7864C141.633 75.5891 141.904 74.87 143.039 74.5758C143.843 74.368 146.102 74.2514 148.06 74.3178C150.461 74.3997 151.907 74.8754 152.501 75.7799ZM104.134 77.7439C103.919 78.0753 102.245 81.5956 100.413 85.5678C98.5814 89.5392 97.2691 92.9668 97.4974 93.1846C97.7249 93.4024 98.6494 91.9666 99.5512 89.9956C100.453 88.0238 101.906 84.8464 102.78 82.9349C103.655 81.0233 104.583 79.4593 104.841 79.4593C105.1 79.4593 106.76 82.4637 108.53 86.137C110.3 89.8095 111.958 92.6139 112.215 92.369C112.47 92.125 111.029 88.5985 109.01 84.5336C106.992 80.468 105.157 77.1423 104.932 77.1423C104.708 77.1423 104.348 77.4134 104.134 77.7439ZM59.2644 89.0032C59.1155 96.3721 59.2507 97.3314 60.3759 96.9197C61.0802 96.6617 63.448 96.4509 65.6378 96.4509C67.8276 96.4509 69.6199 96.1906 69.6207 95.8716C69.6215 95.5527 67.4495 95.4098 64.7935 95.5527L59.9655 95.8129L59.6999 88.2154L59.4344 80.6178L59.2644 89.0032ZM153.801 82.1525C154.38 82.8182 154.583 84.1281 154.282 85.2689C153.987 86.3926 152.883 87.5573 151.71 87.9821C150.581 88.3922 147.859 88.7274 145.662 88.7274H141.667V85.306C141.667 82.371 141.926 81.8358 143.488 81.5493C144.49 81.3647 146.995 81.1669 149.056 81.109C151.495 81.0403 153.151 81.4048 153.801 82.1525Z" fill="white" stroke="white" stroke-width="2" mask="url(#path-1-inside-1_32_252)"/>
</g>
</svg>
